<svg viewBox="0 0 541 97" fill="none" xmlns="http://www.w3.org/2000/svg">
<path d="M149.208 92.16V68.112H188.784V56.64H149.208V35.808C149.208 30.624 150.312 27.648 155.688 27.648H189.96V16.128H158.424C140.04 16.128 130.848 24.048 130.848 40.032V56.64H108.6V68.112H130.848V92.16H149.208Z" fill="white"/>
<path d="M259.086 92.16V16.128H206.814V92.16H225.174V54.432H240.702V92.16H259.086ZM240.702 43.104H225.174V27.456H240.702V43.104Z" fill="white"/>
<path d="M333.153 93.6L303.489 54.912C308.289 52.848 312.321 49.392 315.585 44.592L342.921 92.16H365.169L326.529 38.688C320.121 29.472 310.281 24.48 297.009 24.48V16.128H353.457V27.648H316.521C324.441 33.312 329.817 39.888 332.697 47.328L365.649 93.6H333.153Z" fill="white"/>
<a/>
<path d="M410.741 92.16V16.128H387.893V92.16H410.741Z" fill="white"/>
<path d="M418.179 92.16H436.539V16.128H418.179V92.16Z" fill="white"/>
<path d="M540.301 93.6L510.637 54.912C515.437 52.848 519.469 49.392 522.733 44.592L550.069 92.16H572.317L533.677 38.688C527.269 29.472 517.429 24.48 504.157 24.48V16.128H560.605V27.648H523.669C531.589 33.312 537.005 39.888 539.837 47.328L572.789 93.6H540.301Z" fill="white"/>
<path d="M106.824 43.68C106.824 57.6 100.8 65.52 87.528 65.52C82.152 65.52 77.256 64.08 73.128 61.2L68.856 71.28C74.232 74.88 80.256 76.68 87.528 76.68C107.832 76.68 118.056 65.52 118.056 44.064V43.2C118.056 21.6 107.832 10.44 87.528 10.44C67.224 10.44 57.024 21.6 57.024 43.2V43.68H106.824ZM68.232 40.512V40.128C68.232 29.472 75.384 21.6 87.528 21.6C99.672 21.6 106.824 29.472 106.824 40.128V40.512H68.232Z" fill="white"/>
<path d="M81 0C65.5 0 59 -10.5 59 -32H33C33 -10.5 41 0 54 0H53C35 0 25.5 11.5 25.5 28V29C25.5 45.5 35 57 53 57H54C41 57 33 67.5 33 88.5H59C59 67.5 65.5 57 81 57V0ZM109 0C124.5 0 131 -10.5 131 -32H157C157 -10.5 149 0 136 0H137C155 0 164.5 11.5 164.5 28V29C164.5 45.5 155 57 137 57H136C149 57 157 67.5 157 88.5H131C131 67.5 124.5 57 109 57V0ZM81 16C92 16 98.5 22 98.5 28.5V29C98.5 35.5 92 41.5 81 41.5C70 41.5 63.5 35.5 63.5 29V28.5C63.5 22 70 16 81 16ZM53 154C35 154 25.5 142.5 25.5 126V125C25.5 108.5 35 97 53 97H54C41 97 33 86.5 33 65.5H59C59 86.5 65.5 97 81 97V154C65.5 154 59 143.5 59 121.5H33C33 143.5 41 154 54 154H53ZM109 154V97C124.5 97 131 86.5 131 65.5H157C157 86.5 149 97 136 97H137C155 97 164.5 108.5 164.5 125V126C164.5 142.5 155 154 137 154H136C149 154 157 143.5 157 121.5H131C131 143.5 124.5 154 109 154Z" fill="#B1D8C4"/>
</svg>
